<?xml version="1.0" encoding="UTF-8"?>
<svg width="100pt" height="100pt" version="1.1" viewBox="0 0 100 100" xmlns="http://www.w3.org/2000/svg">
 <path d="m51.672 8.4219 44.5 35.172v-0.003906c0.44141 0.35938 0.61328 0.95312 0.42578 1.4922-0.1875 0.53516-0.6875 0.89844-1.2578 0.90625h-10.629c-0.74609 0-1.3516 0.60547-1.3516 1.3516v43.48c0 0.35938-0.14453 0.70313-0.39844 0.95313-0.25781 0.25391-0.60156 0.39062-0.96094 0.38672h-18.488c-0.74219 0-1.3477-0.59766-1.3516-1.3398v-25.242c0-0.73828-0.60156-1.3398-1.3398-1.3398h-20.531c-0.71875 0.027344-1.2891 0.62109-1.2891 1.3398v25.242c-0.003906 0.74219-0.60938 1.3398-1.3516 1.3398h-19.648c-0.74219 0-1.3438-0.59766-1.3516-1.3398v-43.48c0-0.35938-0.14453-0.69922-0.40234-0.95312-0.25391-0.25-0.59766-0.39062-0.95703-0.38672h-10.629c-0.57031-0.007812-1.0703-0.37109-1.2578-0.91016-0.1875-0.53516-0.015625-1.1328 0.42578-1.4883l44.5-35.18c0.98047-0.78125 2.3633-0.78125 3.3438 0z" fill="#204045" fill-rule="evenodd"/>
</svg>
