<?xml version="1.0" encoding="UTF-8"?>
<svg width="100pt" height="100pt" version="1.1" viewBox="0 0 100 100" xmlns="http://www.w3.org/2000/svg">
 <path d="m85.727 76.902-13.523-13.523c3.8281-5.5781 5.8672-12.109 5.8672-19.02 0-18.602-15.105-33.707-33.707-33.707-18.605 0-33.711 15.148-33.711 33.707s15.105 33.707 33.707 33.707c6.8672 0 13.441-2.082 19.02-5.8672l13.523 13.523c1.207 1.207 2.8281 1.832 4.4102 1.832s3.2031-0.625 4.4102-1.832c2.457-2.457 2.457-6.4102 0-8.8242zm-66.75-32.543c0-13.984 11.402-25.387 25.387-25.387s25.387 11.402 25.387 25.387c0 6.7812-2.6211 13.148-7.4492 17.977-4.7852 4.7852-11.152 7.4492-17.938 7.4492-14.023 0-25.387-11.402-25.387-25.387z" fill="#204045" />
</svg>
