<svg xmlns="http://www.w3.org/2000/svg" width="30.816" height="25.68" viewBox="0 0 30.816 25.68"><g transform="translate(11.538 4.784)"><path d="M204.759,122.155h-12a1.055,1.055,0,0,0-1.055,1.055V128.7a1.055,1.055,0,0,0,1.055,1.055h12a1.055,1.055,0,0,0,1.055-1.055V123.21A1.055,1.055,0,0,0,204.759,122.155Zm-1.055,5.488h-9.885v-3.377H203.7v3.377Z" transform="translate(-191.708 -122.155)"/></g><g transform="translate(0 0)"><g transform="translate(0 0)"><path d="M29.761,42.667H7.387a1.055,1.055,0,0,0-1.055,1.055v4.186H1.055A1.055,1.055,0,0,0,0,48.964V64.126a4.226,4.226,0,0,0,4.221,4.221H25.786a5.036,5.036,0,0,0,5.03-5.03V43.722A1.055,1.055,0,0,0,29.761,42.667ZM6.332,64.126a2.088,2.088,0,0,1-2.111,2.111,2.088,2.088,0,0,1-2.111-2.111V50.019H6.332Zm22.373-.809a2.923,2.923,0,0,1-2.92,2.92H7.876a4.2,4.2,0,0,0,.566-2.111V44.778H28.705Z" transform="translate(0 -42.667)"/></g></g><g transform="translate(11.538 14.458)"><g transform="translate(0 0)"><path d="M204.759,282.88h-12a1.055,1.055,0,1,0,0,2.111h12a1.055,1.055,0,0,0,0-2.111Z" transform="translate(-191.708 -282.88)"/></g></g><g transform="translate(11.538 18.679)"><path d="M204.759,353.017h-12a1.055,1.055,0,0,0,0,2.111h12a1.055,1.055,0,0,0,0-2.111Z" transform="translate(-191.708 -353.017)"/></g></svg>