<svg xmlns="http://www.w3.org/2000/svg" width="20.907" height="25.68" viewBox="0 0 20.907 25.68"><g transform="translate(-44.806)"><path d="M119.784,298.093c0-.426-.3-.681-.818-.681a1.81,1.81,0,0,0-.433.041v1.368a1.64,1.64,0,0,0,.351.027C119.44,298.848,119.784,298.567,119.784,298.093Z" transform="translate(-69.8 -281.571)"/><path d="M194.278,297.681a2.159,2.159,0,0,0-.474.041v3.03a1.9,1.9,0,0,0,.364.021,1.436,1.436,0,0,0,1.567-1.622A1.329,1.329,0,0,0,194.278,297.681Z" transform="translate(-141.062 -281.826)"/><path d="M59.222,0H48.907a2.737,2.737,0,0,0-2.733,2.733V12.84h-.267a1.1,1.1,0,0,0-1.1,1.1v6.679a1.1,1.1,0,0,0,1.1,1.1h.267v1.225a2.736,2.736,0,0,0,2.733,2.733H62.981a2.736,2.736,0,0,0,2.732-2.733V6.469ZM47.7,15.147a8.633,8.633,0,0,1,1.416-.1,2.221,2.221,0,0,1,1.416.371,1.354,1.354,0,0,1,.495,1.072,1.481,1.481,0,0,1-.426,1.1,2.148,2.148,0,0,1-1.505.488,2.713,2.713,0,0,1-.358-.02v1.656H47.7Zm15.285,8.859H48.907a1.06,1.06,0,0,1-1.059-1.059V21.722H60.968a1.1,1.1,0,0,0,1.1-1.1V13.941a1.1,1.1,0,0,0-1.1-1.1H47.849V2.733a1.06,1.06,0,0,1,1.059-1.058l9.688-.01V5.246a1.9,1.9,0,0,0,1.9,1.9L64,7.132l.039,15.815A1.059,1.059,0,0,1,62.981,24.006ZM51.691,19.7v-4.55a9.434,9.434,0,0,1,1.416-.1,2.983,2.983,0,0,1,1.9.494,2.05,2.05,0,0,1,.783,1.746,2.348,2.348,0,0,1-.77,1.876,3.325,3.325,0,0,1-2.137.6A9.067,9.067,0,0,1,51.691,19.7ZM59.191,17v.852H57.528v1.863H56.477V15.086h2.831v.859h-1.78V17Z"/></g></svg>