<svg xmlns="http://www.w3.org/2000/svg" width="25.68" height="25.68" viewBox="0 0 25.68 25.68"><path d="M25.652,9.578,24.6,2.934a2.229,2.229,0,0,0-1.852-1.852L16.1.027a2.229,2.229,0,0,0-1.926.625L.653,14.175a2.229,2.229,0,0,0,0,3.153l7.7,7.7a2.229,2.229,0,0,0,3.153,0L25.027,11.5A2.229,2.229,0,0,0,25.652,9.578ZM10.926,23.3a.872.872,0,0,1-1.232,0L2.379,15.986a.871.871,0,0,1,1.232-1.232l7.315,7.315A.872.872,0,0,1,10.926,23.3ZM20.767,7.287a1.679,1.679,0,1,1,0-2.374A1.679,1.679,0,0,1,20.767,7.287Z" transform="translate(0 0.001)" fill="#231f20"/></svg>