<svg xmlns="http://www.w3.org/2000/svg" width="34.24" height="25.68" viewBox="0 0 34.24 25.68"><path d="M32.035,33H2.325A2.322,2.322,0,0,0,0,35.282v21.15A2.278,2.278,0,0,0,2.325,58.68h29.71a2.189,2.189,0,0,0,2.205-2.248V35.282A2.206,2.206,0,0,0,32.035,33ZM7.811,34.3a.836.836,0,1,1-.836.836A.837.837,0,0,1,7.811,34.3Zm-2.4,0a.836.836,0,1,1-.836.836A.837.837,0,0,1,5.412,34.3Zm-2.4,0a.836.836,0,1,1-.836.836A.837.837,0,0,1,3.012,34.3ZM32.165,56.54c0,.036.014.065-.022.065H2.075V37.345c0-.036.072-.065.108-.065h29.96c.036,0,.022.029.022.065Zm-.793-20.557H22.293a.841.841,0,0,1,0-1.683l9.079,0a.84.84,0,0,1,0,1.68Z" transform="translate(0 -33)"/><g transform="translate(4.338 7.784)"><path d="M34.281,94.7H43.36a.841.841,0,0,0,0-1.681l-9.079,0a.842.842,0,0,0,0,1.684Z" transform="translate(-33.445 -93.013)"/><path d="M43.36,115.016l-9.079,0a.842.842,0,0,0,0,1.684H43.36a.841.841,0,0,0,0-1.681Z" transform="translate(-33.445 -112.16)"/><path d="M43.36,137.016l-9.079,0a.842.842,0,0,0,0,1.684H43.36a.841.841,0,0,0,0-1.681Z" transform="translate(-33.445 -131.306)"/><path d="M43.36,159.016l-9.079,0a.842.842,0,0,0,0,1.684H43.36a.841.841,0,0,0,0-1.681Z" transform="translate(-33.445 -150.453)"/></g><path d="M11.709,13.349H1.663A1.663,1.663,0,0,1,0,11.731V1.685A1.731,1.731,0,0,1,1.731,0h9.979a1.646,1.646,0,0,1,1.64,1.685v9.979A1.646,1.646,0,0,1,11.709,13.349ZM3.016,1.735A1.281,1.281,0,0,0,1.735,2.983v7.434a1.231,1.231,0,0,0,1.231,1.2H10.4a1.218,1.218,0,0,0,1.214-1.247V2.983A1.218,1.218,0,0,0,10.4,1.735Z" transform="translate(16.44 7.224)"/></svg>