<svg xmlns="http://www.w3.org/2000/svg" width="23.35" height="25.685" viewBox="0 0 23.35 25.685"><path d="M22.08.1,10.97,3.5A3.488,3.488,0,0,0,8.533,6.631V18.35a3.914,3.914,0,0,0-2.6-.289c-2.633.374-4.768,2.4-4.768,4.515S3.3,26,5.935,25.621,10.5,23.29,10.5,21.169V11.163c0-.94,1.13-1.343,1.13-1.343l9.823-3.079s1.087-.365,1.087.641v8.037a4.79,4.79,0,0,0-2.794-.358c-2.633.319-4.768,2.3-4.768,4.417s2.135,3.463,4.768,3.143,4.77-2.3,4.77-4.418V1.84A1.776,1.776,0,0,0,22.08.1Z" transform="translate(-1.167 0)"/></svg>