<svg xmlns="http://www.w3.org/2000/svg" width="25.596" height="25.68" viewBox="0 0 25.596 25.68"><g transform="translate(-1.001 0)"><path d="M1.029,20.34,1,8.669a.8.8,0,0,1,1.113-.737l10.625,4.542a.8.8,0,0,1,.485.733l.028,11.671a.8.8,0,0,1-1.113.737L1.514,21.073A.8.8,0,0,1,1.029,20.34ZM25.372,9.218l-9.8,4.246.026,10.8,9.8-4.246-.026-10.8m.4-1.408a.8.8,0,0,1,.8.8L26.6,20.279a.8.8,0,0,1-.482.735l-10.6,4.592a.8.8,0,0,1-1.117-.731L14.368,13.2a.8.8,0,0,1,.482-.735l10.6-4.592a.8.8,0,0,1,.316-.067ZM13.721,1.236,3.551,5.778l10.192,4.493L23.913,5.729,13.721,1.236m0-1.236a.8.8,0,0,1,.324.068L25.221,5a.8.8,0,0,1,0,1.461L14.07,11.437a.8.8,0,0,1-.648,0L2.243,6.511a.8.8,0,0,1,0-1.461L13.394.069A.8.8,0,0,1,13.718,0Z"/></g></svg>