<svg xmlns="http://www.w3.org/2000/svg" width="29.348" height="25.68" viewBox="0 0 29.348 25.68"><g transform="translate(29.348 87.23) rotate(180)"><path d="M2.086,65.721H27.262a2.086,2.086,0,0,0,0-4.171H2.086a2.086,2.086,0,0,0,0,4.171Z"/><path d="M27.262,542.851H2.086a2.086,2.086,0,1,0,0,4.171H27.262a2.086,2.086,0,1,0,0-4.171Z" transform="translate(0 -466.961)"/><path d="M172.4,302.15H151.686a2.086,2.086,0,1,0,0,4.171H172.4a2.086,2.086,0,1,0,0-4.171Z" transform="translate(-145.143 -233.431)"/><path d="M408.262,783.45H394.786a2.086,2.086,0,0,0,0,4.171h13.476a2.086,2.086,0,0,0,0-4.171Z" transform="translate(-381 -700.391)"/></g></svg>