<svg xmlns="http://www.w3.org/2000/svg" width="21.266" height="25.68" viewBox="0 0 21.266 25.68"><path d="M44.491,23.008a2.519,2.519,0,0,0-1.958-2.451V15.768a2.523,2.523,0,1,0-1.119,0v4.789a2.512,2.512,0,0,0,0,4.9v4.789a2.509,2.509,0,1,0,1.125,0V25.458A2.52,2.52,0,0,0,44.491,23.008Zm-3.928-9.69a1.4,1.4,0,1,1,1.4,1.4A1.4,1.4,0,0,1,40.563,13.318ZM43.355,32.7a1.4,1.4,0,1,1-1.4-1.4A1.4,1.4,0,0,1,43.355,32.7Zm-1.4-8.291a1.4,1.4,0,1,1,1.4-1.4A1.4,1.4,0,0,1,41.956,24.406Z" transform="translate(-39.45 -10.196)"/><path d="M182.9,0h-9.791a.561.561,0,0,0-.559.559V6.434a.561.561,0,0,0,.559.559H182.9a.561.561,0,0,0,.559-.559V.559A.561.561,0,0,0,182.9,0Zm-.559,5.819h-8.672v-4.7h8.672Z" transform="translate(-165.103)"/><path d="M185.81,167h-12.7a.561.561,0,0,0-.559.559v5.875a.561.561,0,0,0,.559.559h12.7a.561.561,0,0,0,.559-.559v-5.875A.561.561,0,0,0,185.81,167Zm-.559,5.819H173.669v-4.7H185.25Z" transform="translate(-165.103 -157.657)"/><path d="M182.9,334h-9.791a.561.561,0,0,0-.559.559v5.875a.561.561,0,0,0,.559.559H182.9a.561.561,0,0,0,.559-.559v-5.875A.561.561,0,0,0,182.9,334Zm-.559,5.819h-8.672v-4.7h8.672Z" transform="translate(-165.103 -315.313)"/><path d="M204.209,37.119h3.385a.559.559,0,1,0,0-1.119h-3.385a.559.559,0,1,0,0,1.119Z" transform="translate(-194.463 -33.986)"/><path d="M204.209,69.119h6.305a.559.559,0,1,0,0-1.119h-6.305a.559.559,0,0,0,0,1.119Z" transform="translate(-194.463 -64.196)"/><path d="M204.209,204.119h3.385a.559.559,0,0,0,0-1.119h-3.385a.559.559,0,0,0,0,1.119Z" transform="translate(-194.463 -191.643)"/><path d="M204.209,236.119h6.305a.559.559,0,0,0,0-1.119h-6.305a.559.559,0,0,0,0,1.119Z" transform="translate(-194.463 -221.852)"/><path d="M204.209,371.119h3.385a.559.559,0,0,0,0-1.119h-3.385a.559.559,0,0,0,0,1.119Z" transform="translate(-194.463 -349.299)"/><path d="M204.209,403.119h6.305a.559.559,0,1,0,0-1.119h-6.305a.559.559,0,1,0,0,1.119Z" transform="translate(-194.463 -379.509)"/></svg>